<svg width="329" height="201" viewBox="0 0 329 201" fill="none" xmlns="http://www.w3.org/2000/svg">
<path d="M0 16.2734C0 7.43688 7.16344 0.273438 16 0.273438H313C321.837 0.273438 329 7.43688 329 16.2734V184.273C329 193.11 321.837 200.273 313 200.273H16C7.16344 200.273 0 193.11 0 184.273L0 16.2734Z" fill="black"/>
<path d="M40.3289 29.7216L39.3508 18.2734H33.442C33.442 18.2734 28.9436 27.0881 28.5455 28.2871H28.4829L23.74 18.2734H17.8028L16.8246 28.1995L16 38.2734H19.6112C21.1695 38.2734 21.7837 37.6274 21.9088 36.0506C21.9088 36.0506 22.523 26.8253 22.4263 25.4785H22.4889L22.6708 26.0917C22.9154 26.9129 26.2821 34.7914 26.2821 34.7914H30.7179C30.7179 34.7914 34.0846 27.0334 34.5111 25.4785H34.5737L35.0912 36.0506C35.2163 37.6329 35.859 38.2734 37.3888 38.2734H41L40.3289 29.7216Z" fill="white"/>
<path d="M16.8551 182.273V181.249L22.2095 173.414H16.8104V172.092H24.0888V173.116L18.7344 180.951H24.1335V182.273H16.8551ZM30.6881 179.107V174.637H32.1795V182.273H30.7179V180.951H30.6383C30.4627 181.359 30.181 181.698 29.7932 181.97C29.4087 182.239 28.9298 182.373 28.3564 182.373C27.8658 182.373 27.4317 182.265 27.0538 182.05C26.6793 181.831 26.3843 181.508 26.1689 181.08C25.9568 180.653 25.8507 180.124 25.8507 179.494V174.637H27.3372V179.315C27.3372 179.836 27.4814 180.25 27.7697 180.558C28.0581 180.866 28.4326 181.021 28.8933 181.021C29.1717 181.021 29.4485 180.951 29.7236 180.812C30.002 180.673 30.2323 180.462 30.4146 180.18C30.6002 179.899 30.6914 179.541 30.6881 179.107ZM34.2062 182.273V172.092H35.6927V175.875H35.7822C35.8684 175.716 35.9926 175.532 36.155 175.323C36.3175 175.114 36.5428 174.932 36.8312 174.776C37.1195 174.617 37.5007 174.538 37.9747 174.538C38.5911 174.538 39.1413 174.693 39.6252 175.005C40.1091 175.317 40.4886 175.766 40.7637 176.352C41.0421 176.939 41.1813 177.645 41.1813 178.47C41.1813 179.295 41.0438 180.003 40.7687 180.593C40.4936 181.18 40.1158 181.632 39.6352 181.95C39.1546 182.265 38.606 182.423 37.9896 182.423C37.5256 182.423 37.1461 182.345 36.8511 182.189C36.5594 182.033 36.3307 181.851 36.165 181.642C35.9993 181.433 35.8717 181.248 35.7822 181.085H35.6579V182.273H34.2062ZM35.6629 178.455C35.6629 178.992 35.7408 179.463 35.8965 179.867C36.0523 180.272 36.2777 180.588 36.5727 180.817C36.8676 181.042 37.2289 181.155 37.6565 181.155C38.1006 181.155 38.4718 181.037 38.7701 180.802C39.0684 180.563 39.2938 180.24 39.4462 179.832C39.602 179.425 39.6799 178.966 39.6799 178.455C39.6799 177.951 39.6037 177.499 39.4512 177.098C39.3021 176.697 39.0767 176.38 38.7751 176.148C38.4768 175.916 38.1039 175.8 37.6565 175.8C37.2256 175.8 36.861 175.911 36.5627 176.134C36.2677 176.356 36.044 176.665 35.8916 177.063C35.7391 177.461 35.6629 177.925 35.6629 178.455ZM42.8799 182.273V172.092H44.3664V175.875H44.4559C44.542 175.716 44.6663 175.532 44.8287 175.323C44.9911 175.114 45.2165 174.932 45.5049 174.776C45.7932 174.617 46.1744 174.538 46.6483 174.538C47.2648 174.538 47.815 174.693 48.2989 175.005C48.7828 175.317 49.1623 175.766 49.4374 176.352C49.7158 176.939 49.855 177.645 49.855 178.47C49.855 179.295 49.7175 180.003 49.4424 180.593C49.1673 181.18 48.7894 181.632 48.3088 181.95C47.8282 182.265 47.2797 182.423 46.6632 182.423C46.1992 182.423 45.8197 182.345 45.5247 182.189C45.2331 182.033 45.0044 181.851 44.8387 181.642C44.6729 181.433 44.5453 181.248 44.4559 181.085H44.3316V182.273H42.8799ZM44.3365 178.455C44.3365 178.992 44.4144 179.463 44.5702 179.867C44.726 180.272 44.9514 180.588 45.2463 180.817C45.5413 181.042 45.9026 181.155 46.3301 181.155C46.7743 181.155 47.1455 181.037 47.4438 180.802C47.7421 180.563 47.9675 180.24 48.1199 179.832C48.2757 179.425 48.3536 178.966 48.3536 178.455C48.3536 177.951 48.2773 177.499 48.1249 177.098C47.9757 176.697 47.7504 176.38 47.4487 176.148C47.1505 175.916 46.7776 175.8 46.3301 175.8C45.8993 175.8 45.5347 175.911 45.2364 176.134C44.9414 176.356 44.7177 176.665 44.5652 177.063C44.4128 177.461 44.3365 177.925 44.3365 178.455ZM52.1141 185.137C51.892 185.137 51.6898 185.119 51.5075 185.082C51.3253 185.049 51.1894 185.013 51.0999 184.973L51.4578 183.755C51.7296 183.828 51.9716 183.859 52.1837 183.849C52.3958 183.839 52.5831 183.76 52.7455 183.611C52.9112 183.462 53.057 183.218 53.183 182.88L53.3669 182.373L50.5729 174.637H52.1638L54.0977 180.563H54.1773L56.1112 174.637H57.7071L54.5601 183.293C54.4143 183.69 54.2287 184.027 54.0033 184.302C53.7779 184.58 53.5094 184.789 53.1979 184.928C52.8863 185.067 52.5251 185.137 52.1141 185.137ZM69.2961 172.092H70.8373V178.788C70.8373 179.501 70.6699 180.132 70.3352 180.683C70.0004 181.229 69.5298 181.66 68.9232 181.975C68.3167 182.287 67.6058 182.442 66.7904 182.442C65.9784 182.442 65.2691 182.287 64.6626 181.975C64.0561 181.66 63.5854 181.229 63.2507 180.683C62.9159 180.132 62.7485 179.501 62.7485 178.788V172.092H64.2848V178.664C64.2848 179.125 64.3858 179.534 64.588 179.892C64.7935 180.25 65.0835 180.532 65.458 180.737C65.8326 180.939 66.2767 181.04 66.7904 181.04C67.3075 181.04 67.7533 180.939 68.1278 180.737C68.5056 180.532 68.794 180.25 68.9928 179.892C69.195 179.534 69.2961 179.125 69.2961 178.664V172.092ZM76.0781 182.428C75.339 182.428 74.7026 182.26 74.169 181.925C73.6387 181.587 73.231 181.122 72.946 180.528C72.661 179.935 72.5184 179.256 72.5184 178.49C72.5184 177.714 72.6643 177.03 72.9559 176.437C73.2476 175.84 73.6586 175.375 74.1889 175.04C74.7192 174.705 75.344 174.538 76.0632 174.538C76.6432 174.538 77.1602 174.645 77.6143 174.861C78.0684 175.073 78.4346 175.371 78.713 175.756C78.9948 176.14 79.1621 176.589 79.2152 177.103H77.7684C77.6889 176.745 77.5066 176.437 77.2216 176.178C76.9398 175.92 76.562 175.79 76.088 175.79C75.6737 175.79 75.3108 175.9 74.9993 176.119C74.691 176.334 74.4507 176.642 74.2784 177.043C74.106 177.441 74.0199 177.912 74.0199 178.455C74.0199 179.012 74.1044 179.493 74.2734 179.897C74.4424 180.301 74.6811 180.615 74.9893 180.837C75.3009 181.059 75.6671 181.17 76.088 181.17C76.3698 181.17 76.625 181.118 76.8537 181.016C77.0857 180.91 77.2796 180.759 77.4353 180.563C77.5944 180.368 77.7055 180.132 77.7684 179.857H79.2152C79.1621 180.351 79.0014 180.792 78.7329 181.18C78.4645 181.567 78.1048 181.872 77.6541 182.094C77.2066 182.317 76.6813 182.428 76.0781 182.428ZM82.2013 177.739V182.273H80.7148V172.092H82.1815V175.88H82.2759C82.4549 175.469 82.7283 175.143 83.0962 174.901C83.4641 174.659 83.9447 174.538 84.538 174.538C85.0617 174.538 85.519 174.645 85.9101 174.861C86.3046 175.076 86.6095 175.398 86.8249 175.825C87.0437 176.25 87.153 176.78 87.153 177.416V182.273H85.6665V177.595C85.6665 177.035 85.5224 176.601 85.234 176.293C84.9457 175.981 84.5446 175.825 84.0309 175.825C83.6796 175.825 83.3647 175.9 83.0863 176.049C82.8112 176.198 82.5941 176.417 82.435 176.705C82.2792 176.99 82.2013 177.335 82.2013 177.739ZM92.3379 182.428C91.5855 182.428 90.9376 182.267 90.394 181.945C89.8538 181.621 89.4362 181.165 89.1412 180.578C88.8495 179.988 88.7037 179.297 88.7037 178.505C88.7037 177.723 88.8495 177.033 89.1412 176.437C89.4362 175.84 89.8471 175.375 90.3741 175.04C90.9044 174.705 91.5242 174.538 92.2335 174.538C92.6644 174.538 93.082 174.609 93.4863 174.751C93.8907 174.894 94.2536 175.118 94.5751 175.423C94.8966 175.728 95.1502 176.124 95.3358 176.611C95.5214 177.095 95.6142 177.683 95.6142 178.376V178.903H89.5439V177.789H94.1575C94.1575 177.398 94.078 177.052 93.9189 176.75C93.7598 176.445 93.5361 176.205 93.2477 176.029C92.9627 175.853 92.6279 175.766 92.2434 175.766C91.8258 175.766 91.4613 175.868 91.1497 176.074C90.8415 176.276 90.6028 176.541 90.4338 176.869C90.2681 177.194 90.1852 177.547 90.1852 177.928V178.798C90.1852 179.309 90.2747 179.743 90.4537 180.101C90.636 180.459 90.8895 180.732 91.2143 180.921C91.5391 181.107 91.9186 181.2 92.3528 181.2C92.6345 181.2 92.8914 181.16 93.1234 181.08C93.3554 180.997 93.5559 180.875 93.725 180.712C93.894 180.55 94.0233 180.349 94.1128 180.111L95.5197 180.364C95.407 180.779 95.2049 181.142 94.9132 181.453C94.6248 181.761 94.2619 182.002 93.8244 182.174C93.3902 182.343 92.8947 182.428 92.3379 182.428ZM109.126 172.092V182.273H107.714L102.539 174.806H102.444V182.273H100.908V172.092H102.33L107.51 179.569H107.605V172.092H109.126ZM112.813 182.273L110.566 174.637H112.102L113.599 180.245H113.673L115.175 174.637H116.711L118.202 180.22H118.277L119.763 174.637H121.3L119.057 182.273H117.541L115.99 176.76H115.876L114.324 182.273H112.813ZM124.843 182.442C124.359 182.442 123.921 182.353 123.53 182.174C123.139 181.992 122.829 181.728 122.6 181.384C122.375 181.039 122.262 180.616 122.262 180.116C122.262 179.685 122.345 179.33 122.511 179.052C122.677 178.773 122.9 178.553 123.182 178.391C123.464 178.228 123.779 178.106 124.127 178.023C124.475 177.94 124.829 177.877 125.191 177.834C125.648 177.781 126.019 177.738 126.304 177.705C126.589 177.668 126.796 177.61 126.926 177.531C127.055 177.451 127.12 177.322 127.12 177.143V177.108C127.12 176.674 126.997 176.337 126.752 176.099C126.51 175.86 126.148 175.741 125.668 175.741C125.167 175.741 124.773 175.852 124.485 176.074C124.2 176.293 124.002 176.536 123.893 176.805L122.496 176.487C122.662 176.022 122.904 175.648 123.222 175.363C123.543 175.075 123.913 174.866 124.331 174.737C124.748 174.604 125.187 174.538 125.648 174.538C125.953 174.538 126.276 174.574 126.617 174.647C126.962 174.717 127.284 174.846 127.582 175.035C127.884 175.224 128.13 175.494 128.323 175.845C128.515 176.193 128.611 176.646 128.611 177.202V182.273H127.159V181.229H127.1C127.004 181.422 126.859 181.611 126.667 181.796C126.475 181.982 126.228 182.136 125.926 182.259C125.625 182.381 125.264 182.442 124.843 182.442ZM125.166 181.249C125.577 181.249 125.928 181.168 126.22 181.006C126.515 180.843 126.738 180.631 126.891 180.369C127.047 180.104 127.125 179.821 127.125 179.519V178.535C127.072 178.588 126.969 178.638 126.816 178.684C126.667 178.727 126.496 178.765 126.304 178.798C126.112 178.828 125.925 178.856 125.742 178.883C125.56 178.906 125.408 178.926 125.285 178.942C124.997 178.979 124.733 179.04 124.495 179.126C124.259 179.213 124.07 179.337 123.928 179.499C123.789 179.658 123.719 179.871 123.719 180.136C123.719 180.504 123.855 180.782 124.127 180.971C124.398 181.156 124.745 181.249 125.166 181.249ZM131.988 177.739V182.273H130.501V174.637H131.928V175.88H132.022C132.198 175.476 132.473 175.151 132.848 174.906C133.225 174.66 133.701 174.538 134.274 174.538C134.795 174.538 135.251 174.647 135.642 174.866C136.033 175.081 136.336 175.403 136.551 175.83C136.767 176.258 136.875 176.786 136.875 177.416V182.273H135.388V177.595C135.388 177.042 135.244 176.609 134.956 176.298C134.667 175.983 134.271 175.825 133.767 175.825C133.423 175.825 133.116 175.9 132.848 176.049C132.582 176.198 132.372 176.417 132.216 176.705C132.064 176.99 131.988 177.335 131.988 177.739ZM140.145 179.683L140.135 177.869H140.394L143.437 174.637H145.216L141.746 178.316H141.513L140.145 179.683ZM138.778 182.273V172.092H140.265V182.273H138.778ZM143.601 182.273L140.866 178.644L141.89 177.605L145.425 182.273H143.601ZM148.137 182.273L145.89 174.637H147.426L148.922 180.245H148.997L150.498 174.637H152.034L153.526 180.22H153.6L155.087 174.637H156.623L154.381 182.273H152.865L151.314 176.76H151.199L149.648 182.273H148.137ZM160.928 182.428C160.212 182.428 159.587 182.263 159.054 181.935C158.52 181.607 158.106 181.148 157.811 180.558C157.516 179.968 157.368 179.279 157.368 178.49C157.368 177.698 157.516 177.005 157.811 176.412C158.106 175.819 158.52 175.358 159.054 175.03C159.587 174.702 160.212 174.538 160.928 174.538C161.644 174.538 162.269 174.702 162.802 175.03C163.336 175.358 163.75 175.819 164.045 176.412C164.34 177.005 164.488 177.698 164.488 178.49C164.488 179.279 164.34 179.968 164.045 180.558C163.75 181.148 163.336 181.607 162.802 181.935C162.269 182.263 161.644 182.428 160.928 182.428ZM160.933 181.18C161.397 181.18 161.782 181.057 162.086 180.812C162.391 180.567 162.617 180.24 162.763 179.832C162.912 179.425 162.986 178.976 162.986 178.485C162.986 177.998 162.912 177.55 162.763 177.143C162.617 176.732 162.391 176.402 162.086 176.153C161.782 175.905 161.397 175.781 160.933 175.781C160.466 175.781 160.078 175.905 159.77 176.153C159.465 176.402 159.238 176.732 159.089 177.143C158.943 177.55 158.87 177.998 158.87 178.485C158.87 178.976 158.943 179.425 159.089 179.832C159.238 180.24 159.465 180.567 159.77 180.812C160.078 181.057 160.466 181.18 160.933 181.18Z" fill="white"/>
<path fill-rule="evenodd" clip-rule="evenodd" d="M270.85 181.909H266.002L262.367 167.632C262.195 166.975 261.828 166.395 261.289 166.121C259.944 165.433 258.462 164.886 256.846 164.61V164.061H264.655C265.733 164.061 266.541 164.886 266.676 165.845L268.562 176.143L273.407 164.061H278.12L270.85 181.909ZM280.815 181.909H276.236L280.006 164.061H284.585L280.815 181.909ZM290.509 169.004C290.644 168.043 291.452 167.494 292.395 167.494C293.877 167.356 295.491 167.632 296.839 168.317L297.647 164.474C296.3 163.924 294.818 163.648 293.473 163.648C289.029 163.648 285.796 166.121 285.796 169.552C285.796 172.162 288.086 173.533 289.703 174.358C291.452 175.181 292.126 175.731 291.991 176.554C291.991 177.789 290.644 178.339 289.299 178.339C287.682 178.339 286.065 177.927 284.586 177.24L283.777 181.085C285.394 181.77 287.143 182.046 288.76 182.046C293.742 182.182 296.839 179.712 296.839 176.005C296.839 171.336 290.509 171.063 290.509 169.004ZM312.861 181.909L309.225 164.061H305.321C304.512 164.061 303.704 164.61 303.435 165.433L296.703 181.909H301.416L302.357 179.301H308.148L308.687 181.909H312.861ZM305.995 168.866L307.34 175.593H303.57L305.995 168.866Z" fill="white"/>
</svg>
